<svg width="585" height="446" viewBox="0 0 585 446" fill="none" xmlns="http://www.w3.org/2000/svg">
<g clip-path="url(#clip0_129_3828)">
<path d="M512.51 424.58C504.08 424.58 497.25 429.94 497.25 436.58C497.272 437.968 497.572 439.338 498.132 440.609C498.692 441.88 499.501 443.026 500.51 443.98H457.61C446.497 412.361 446.497 377.898 457.61 346.28H500.52C499.504 345.326 498.69 344.178 498.127 342.903C497.563 341.628 497.262 340.253 497.24 338.86C497.24 332.24 504.07 326.86 512.5 326.86C520.93 326.86 527.77 332.23 527.77 338.86C527.748 340.253 527.447 341.628 526.883 342.903C526.32 344.178 525.506 345.326 524.49 346.28H547V382.93C545.091 381.003 542.502 379.901 539.79 379.86C533.18 379.86 527.79 386.7 527.79 395.13C527.79 403.56 533.17 410.4 539.79 410.4C542.502 410.359 545.091 409.257 547 407.33V444H524.52C525.53 443.046 526.338 441.9 526.898 440.629C527.458 439.358 527.758 437.988 527.78 436.6C527.78 429.97 520.95 424.6 512.51 424.6V424.58Z" fill="#FBC343"/>
<path d="M114 184.81C114 135.797 133.47 88.7914 168.126 54.1331C202.782 19.4748 249.787 0.00265207 298.8 0C400.87 0 483.62 82.74 483.62 184.81H114.07" fill="white"/>
<path d="M483.5 184.81H445.27C445.27 145.903 429.814 108.589 402.303 81.0774C374.791 53.5658 337.477 38.11 298.57 38.11C259.663 38.11 222.349 53.5658 194.837 81.0774C167.326 108.589 151.87 145.903 151.87 184.81H114C114 135.797 133.47 88.7914 168.126 54.1331C202.782 19.4748 249.787 0.00265207 298.8 0C400.87 0 483.62 82.74 483.62 184.81" fill="#F9DDBF"/>
<path d="M276.28 444.85C271.869 444.834 267.637 443.103 264.478 440.025C261.318 436.946 259.48 432.759 259.35 428.35L231.62 413.84H366L338.26 428.35C338.13 432.759 336.292 436.946 333.133 440.025C329.974 443.103 325.741 444.834 321.33 444.85H276.28Z" fill="#102048"/>
<path d="M369 413H228.64L233.9 415.76L258.63 428.7C258.865 433.224 260.827 437.484 264.111 440.604C267.395 443.724 271.75 445.466 276.28 445.47H321.33C325.87 445.473 330.238 443.729 333.527 440.599C336.817 437.47 338.776 433.195 339 428.66L363.74 415.72L369 413ZM363 414.43L337.52 427.76C337.524 429.89 337.108 432.001 336.296 433.97C335.483 435.94 334.291 437.73 332.786 439.238C331.282 440.746 329.495 441.943 327.527 442.76C325.56 443.577 323.45 443.999 321.32 444H276.32C272.021 444 267.898 442.292 264.858 439.252C261.818 436.212 260.11 432.089 260.11 427.79L234.62 414.46H363" fill="white"/>
<path d="M445.27 184.92C445.27 213.934 436.666 242.297 420.547 266.422C404.427 290.547 381.516 309.35 354.71 320.453C327.904 331.556 298.407 334.462 269.95 328.801C241.493 323.141 215.354 309.169 194.837 288.653C174.321 268.136 160.349 241.997 154.689 213.54C149.028 185.083 151.933 155.586 163.037 128.78C174.14 101.974 192.943 79.063 217.068 62.9434C241.192 46.8238 269.555 38.22 298.57 38.22C337.477 38.22 374.791 53.6758 402.302 81.1874C429.814 108.699 445.27 146.013 445.27 184.92Z" fill="white"/>
<path d="M445.27 184.92C445.27 213.934 436.666 242.297 420.547 266.422C404.427 290.547 381.516 309.35 354.71 320.453C327.904 331.556 298.407 334.462 269.95 328.801C241.493 323.141 215.354 309.169 194.837 288.653C174.321 268.136 160.349 241.997 154.689 213.54C149.028 185.083 151.933 155.586 163.037 128.78C174.14 101.974 192.943 79.063 217.068 62.9434C241.192 46.8238 269.555 38.22 298.57 38.22C337.477 38.22 374.791 53.6758 402.302 81.1874C429.814 108.699 445.27 146.013 445.27 184.92Z" fill="white"/>
<path d="M363.29 357.1H234.59V286.9H363.29V357.1Z" fill="#FBC343"/>
<path d="M363.29 395.41H234.59V357.39H363.29V395.41Z" fill="#006699"/>
<path d="M394.44 116.24C385.99 116.24 379.15 121.61 379.15 128.24C379.174 129.635 379.477 131.012 380.042 132.288C380.608 133.564 381.423 134.714 382.44 135.67H347.78V102.42C346.831 103.409 345.695 104.199 344.439 104.747C343.183 105.294 341.83 105.588 340.46 105.61C333.82 105.61 328.46 98.7699 328.46 90.3199C328.46 81.8699 333.82 74.9999 340.46 74.9999C341.83 75.0221 343.183 75.3154 344.439 75.8629C345.695 76.4104 346.831 77.2013 347.78 78.1899V46.1899C368.404 53.509 387.135 65.3364 402.609 80.8107C418.083 96.285 429.911 115.016 437.23 135.64H406.43C407.447 134.684 408.262 133.534 408.828 132.258C409.393 130.982 409.696 129.605 409.72 128.21C409.72 121.58 402.87 116.21 394.44 116.21V116.24Z" fill="#FBD682"/>
<path d="M347.78 294.55C346.829 295.535 345.693 296.324 344.437 296.869C343.181 297.415 341.829 297.708 340.46 297.73C333.82 297.73 328.46 290.89 328.46 282.45C328.46 274.01 333.82 267.16 340.46 267.16C341.83 267.182 343.183 267.475 344.439 268.023C345.695 268.57 346.831 269.361 347.78 270.35V233.66H382.41C381.402 232.703 380.594 231.555 380.034 230.283C379.474 229.011 379.174 227.64 379.15 226.25C379.15 219.62 385.99 214.25 394.44 214.25C402.89 214.25 409.72 219.62 409.72 226.25C409.697 227.641 409.395 229.013 408.834 230.285C408.272 231.558 407.462 232.705 406.45 233.66H437.24C429.924 254.288 418.096 273.023 402.62 288.5C387.143 303.976 368.408 315.804 347.78 323.12V294.5" fill="#FBC343"/>
<path d="M394.38 214.28C385.95 214.28 379.11 219.64 379.11 226.28C379.134 227.669 379.435 229.04 379.997 230.311C380.558 231.582 381.369 232.727 382.38 233.68H347.78V196.17C348.753 197.359 349.972 198.325 351.353 198.999C352.733 199.674 354.244 200.043 355.78 200.08C362.4 200.08 367.78 193.25 367.78 184.82C367.78 176.39 362.41 169.54 355.78 169.54C354.243 169.579 352.732 169.95 351.352 170.626C349.971 171.303 348.753 172.269 347.78 173.46V136H382.4C381.384 135.046 380.569 133.898 380.004 132.623C379.439 131.349 379.135 129.974 379.11 128.58C379.11 121.95 385.95 116.58 394.38 116.58C402.81 116.58 409.65 121.95 409.65 128.58C409.625 129.974 409.321 131.349 408.756 132.623C408.191 133.898 407.376 135.046 406.36 136H437.13C448.257 167.613 448.257 202.077 437.13 233.69H406.38C407.391 232.737 408.202 231.592 408.763 230.321C409.325 229.05 409.626 227.679 409.65 226.29C409.65 219.67 402.81 214.29 394.38 214.29V214.28Z" fill="#FBC343"/>
<path d="M250.09 323.12V294.66C248.182 296.589 245.593 297.691 242.88 297.73C236.27 297.73 230.88 290.89 230.88 282.45C230.88 274.01 236.25 267.16 242.88 267.16C245.593 267.199 248.182 268.301 250.09 270.23V233.66H286.93C285.918 232.705 285.108 231.558 284.546 230.285C283.985 229.013 283.683 227.641 283.66 226.25C283.66 219.62 290.5 214.25 298.93 214.25C307.36 214.25 314.2 219.62 314.2 226.25C314.176 227.64 313.876 229.011 313.316 230.283C312.756 231.555 311.948 232.703 310.94 233.66H347.78V270.35C346.831 269.361 345.695 268.57 344.439 268.023C343.183 267.475 341.83 267.182 340.46 267.16C333.84 267.16 328.46 274.01 328.46 282.45C328.46 290.89 333.82 297.73 340.46 297.73C341.829 297.708 343.181 297.415 344.437 296.869C345.693 296.324 346.829 295.535 347.78 294.55V323.12C316.166 334.24 281.704 334.24 250.09 323.12Z" fill="#FBC343"/>
<path d="M298.93 155.43C290.5 155.43 283.66 150.06 283.66 143.43C283.69 141.955 284.029 140.503 284.654 139.166C285.279 137.83 286.177 136.639 287.29 135.67H250.09V102.54C248.182 104.469 245.593 105.571 242.88 105.61C236.27 105.61 230.88 98.7701 230.88 90.3201C230.88 81.8701 236.27 75.0001 242.88 75.0001C245.593 75.0389 248.182 76.1413 250.09 78.0701V46.2201C281.704 35.1005 316.166 35.1005 347.78 46.2201V78.2201C346.833 77.226 345.699 76.4296 344.442 75.8769C343.186 75.3242 341.832 75.0262 340.46 75.0001C333.84 75.0001 328.46 81.8401 328.46 90.2801C328.46 98.7201 333.82 105.57 340.46 105.57C341.83 105.548 343.183 105.255 344.439 104.707C345.695 104.16 346.831 103.369 347.78 102.38V135.63H310.57C311.684 136.597 312.584 137.788 313.209 139.125C313.834 140.461 314.172 141.915 314.2 143.39C314.2 150.02 307.37 155.39 298.93 155.39V155.43Z" fill="#FBC343"/>
<path d="M215.29 116.24C206.86 116.24 200.01 121.61 200.01 128.24C200.034 129.635 200.337 131.012 200.903 132.288C201.468 133.564 202.283 134.714 203.3 135.67H160.3C167.62 115.047 179.448 96.3163 194.922 80.8423C210.396 65.3682 229.127 53.5403 249.75 46.22V78.11C247.858 76.1761 245.285 75.0598 242.58 75C235.96 75 230.58 81.84 230.58 90.28C230.58 98.72 235.95 105.57 242.58 105.57C245.293 105.531 247.882 104.429 249.79 102.5V135.63H227.29C228.31 134.676 229.128 133.527 229.695 132.25C230.262 130.974 230.567 129.596 230.59 128.2C230.59 121.57 223.74 116.2 215.29 116.2V116.24Z" fill="#FBD682"/>
<path d="M394.44 116.24C385.99 116.24 379.15 121.61 379.15 128.24C379.174 129.635 379.477 131.012 380.042 132.288C380.608 133.564 381.423 134.714 382.44 135.67H347.78V102.42C346.831 103.409 345.695 104.199 344.439 104.747C343.183 105.294 341.83 105.588 340.46 105.61C333.82 105.61 328.46 98.7699 328.46 90.3199C328.46 81.8699 333.82 74.9999 340.46 74.9999C341.83 75.0221 343.183 75.3154 344.439 75.8629C345.695 76.4104 346.831 77.2013 347.78 78.1899V46.1899C368.404 53.509 387.135 65.3364 402.609 80.8107C418.083 96.285 429.911 115.016 437.23 135.64H406.43C407.447 134.684 408.262 133.534 408.828 132.258C409.393 130.982 409.696 129.605 409.72 128.21C409.72 121.58 402.87 116.21 394.44 116.21V116.24Z" fill="#FBC343"/>
<path d="M394.38 214.28C385.95 214.28 379.11 219.64 379.11 226.28C379.134 227.669 379.435 229.04 379.997 230.311C380.558 231.582 381.369 232.727 382.38 233.68H347.78V196.17C348.753 197.359 349.972 198.325 351.353 198.999C352.733 199.674 354.244 200.043 355.78 200.08C362.4 200.08 367.78 193.25 367.78 184.82C367.78 176.39 362.41 169.54 355.78 169.54C354.243 169.579 352.732 169.95 351.352 170.626C349.971 171.303 348.753 172.269 347.78 173.46V136H382.4C381.384 135.046 380.569 133.898 380.004 132.623C379.439 131.349 379.135 129.974 379.11 128.58C379.11 121.95 385.95 116.58 394.38 116.58C402.81 116.58 409.65 121.95 409.65 128.58C409.625 129.974 409.321 131.349 408.756 132.623C408.191 133.898 407.376 135.046 406.36 136H437.13C448.257 167.613 448.257 202.077 437.13 233.69H406.38C407.391 232.737 408.202 231.592 408.763 230.321C409.325 229.05 409.626 227.679 409.65 226.29C409.65 219.67 402.81 214.29 394.38 214.29V214.28Z" fill="#FBC343"/>
<path d="M298.93 155.43C290.5 155.43 283.66 150.06 283.66 143.43C283.69 141.955 284.029 140.503 284.654 139.166C285.279 137.83 286.177 136.639 287.29 135.67H250.09V102.54C248.182 104.469 245.593 105.571 242.88 105.61C236.27 105.61 230.88 98.7701 230.88 90.3201C230.88 81.8701 236.27 75.0001 242.88 75.0001C245.593 75.0389 248.182 76.1413 250.09 78.0701V46.2201C281.704 35.1005 316.166 35.1005 347.78 46.2201V78.2201C346.833 77.226 345.699 76.4296 344.442 75.8769C343.186 75.3242 341.832 75.0262 340.46 75.0001C333.84 75.0001 328.46 81.8401 328.46 90.2801C328.46 98.7201 333.82 105.57 340.46 105.57C341.83 105.548 343.183 105.255 344.439 104.707C345.695 104.16 346.831 103.369 347.78 102.38V135.63H310.57C311.684 136.597 312.584 137.788 313.209 139.125C313.834 140.461 314.172 141.915 314.2 143.39C314.2 150.02 307.37 155.39 298.93 155.39V155.43Z" fill="#FBC343"/>
<path d="M215.29 116.24C206.86 116.24 200.01 121.61 200.01 128.24C200.034 129.635 200.337 131.012 200.903 132.288C201.468 133.564 202.283 134.714 203.3 135.67H160.3C167.62 115.047 179.448 96.3163 194.922 80.8423C210.396 65.3682 229.127 53.5403 249.75 46.22V78.11C247.858 76.1761 245.285 75.0598 242.58 75C235.96 75 230.58 81.84 230.58 90.28C230.58 98.72 235.95 105.57 242.58 105.57C245.293 105.531 247.882 104.429 249.79 102.5V135.63H227.29C228.31 134.676 229.128 133.527 229.695 132.25C230.262 130.974 230.567 129.596 230.59 128.2C230.59 121.57 223.74 116.2 215.29 116.2V116.24Z" fill="#FBC343"/>
<path d="M437 136.55H404.5L405.77 135.3C406.721 134.416 407.483 133.35 408.01 132.164C408.538 130.978 408.82 129.698 408.84 128.4C408.84 122.19 402.31 117.14 394.29 117.14C386.27 117.14 379.73 122.14 379.73 128.4C379.75 129.698 380.032 130.978 380.56 132.164C381.087 133.35 381.849 134.416 382.8 135.3L384.07 136.55H346.9V104.21C345.023 105.695 342.703 106.508 340.31 106.52C333.31 106.52 327.58 99.34 327.58 90.52C327.58 81.7 333.29 74.52 340.31 74.52C342.703 74.5321 345.023 75.3453 346.9 76.83V46.46H348.37V80.12L347.12 78.89C346.242 77.9639 345.189 77.2218 344.022 76.7067C342.854 76.1917 341.596 75.914 340.32 75.89C334.11 75.89 329.06 82.41 329.06 90.44C329.06 98.47 334.11 105 340.32 105C341.596 104.978 342.855 104.701 344.023 104.186C345.19 103.67 346.243 102.927 347.12 102L348.37 100.77V135.04H380.63C379.11 133.134 378.266 130.778 378.23 128.34C378.23 121.34 385.42 115.6 394.23 115.6C403.04 115.6 410.23 121.32 410.23 128.34C410.203 130.779 409.358 133.138 407.83 135.04H437V136.5V136.55Z" fill="#FDF6E6"/>
<path d="M348.37 322.87H346.9V295.93C345.028 297.416 342.71 298.229 340.32 298.24C333.32 298.24 327.6 291.07 327.6 282.24C327.6 273.41 333.3 266.24 340.32 266.24C342.709 266.251 345.025 267.061 346.9 268.54V232.78H380.61C379.099 230.886 378.261 228.543 378.23 226.12C378.23 219.12 385.41 213.4 394.23 213.4C403.05 213.4 410.23 219.1 410.23 226.12C410.204 228.544 409.366 230.888 407.85 232.78H437V234.25H404.47L405.72 233C406.655 232.112 407.403 231.046 407.918 229.864C408.433 228.682 408.706 227.409 408.72 226.12C408.72 219.91 402.2 214.86 394.19 214.86C386.18 214.86 379.64 219.86 379.64 226.12C379.662 227.413 379.945 228.689 380.471 229.871C380.996 231.053 381.755 232.117 382.7 233L383.95 234.25H348.37V271.91L347.12 270.68C346.242 269.754 345.189 269.012 344.022 268.497C342.854 267.982 341.596 267.704 340.32 267.68C334.11 267.68 329.06 274.2 329.06 282.22C329.06 290.24 334.11 296.75 340.32 296.75C341.596 296.728 342.855 296.451 344.023 295.936C345.191 295.421 346.244 294.678 347.12 293.75L348.37 292.53V322.81V322.87Z" fill="#FDF6E6"/>
<path d="M250.67 135.67H249.21V104.11C247.35 105.536 245.074 106.316 242.73 106.33C235.73 106.33 230 99.1399 230 90.3299C230 81.5199 235.71 74.3299 242.73 74.3299C245.074 74.3443 247.35 75.1238 249.21 76.5499V46.1699H250.67V79.7999L249.43 78.5999C247.66 76.8015 245.253 75.7738 242.73 75.7399C236.52 75.7399 231.46 82.2699 231.46 90.2999C231.46 98.3299 236.52 104.86 242.73 104.86C245.255 104.827 247.664 103.795 249.43 101.99L250.67 100.8V135.67Z" fill="#FDF6E6"/>
<path d="M233.71 415.01V394.54H363.87V415.01H233.71Z" fill="#102048"/>
<path d="M364.75 394H233.12V415.94H364.75V394ZM363.29 395.46V414.46H234.58V395.46H363.29Z" fill="white"/>
<path d="M272.61 252.97H243.07V250.63H270.27V220.79H272.61V252.97Z" fill="#FDF6E6"/>
<path d="M122.75 441.83C102.506 433.516 84.3709 420.79 69.6665 404.581C54.9622 388.372 44.0586 369.086 37.75 348.13L80.65 350.21C79.6865 349.209 78.9328 348.025 78.433 346.729C77.9333 345.432 77.6977 344.049 77.74 342.66C78.07 336.03 85.16 331 93.59 331.41C102.02 331.82 108.59 337.52 108.28 344.14C108.19 345.527 107.823 346.883 107.202 348.126C106.58 349.369 105.716 350.476 104.66 351.38L127.11 352.47L125.32 389C123.517 386.997 121.008 385.771 118.32 385.58C111.7 385.26 106 391.84 105.59 400.27C105.18 408.7 110.22 415.8 116.84 416.12C119.551 416.208 122.189 415.231 124.19 413.4L122.8 441.83" fill="#FBC343"/>
<path d="M123.42 399.66C123.415 400.938 122.904 402.163 121.999 403.066C121.094 403.969 119.868 404.477 118.59 404.48H98.37C97.3137 404.445 96.2938 404.086 95.4492 403.451C94.6046 402.815 93.9764 401.935 93.65 400.93C93.4569 400.214 93.431 399.463 93.5744 398.735C93.7178 398.007 94.0266 397.321 94.477 396.732C94.9274 396.142 95.5073 395.664 96.1719 395.334C96.8365 395.005 97.5681 394.832 98.31 394.83H118.59C119.869 394.835 121.095 395.346 122 396.251C122.904 397.155 123.415 398.381 123.42 399.66ZM43 380.79V444H173.74V380.79H43Z" fill="#E5ECFF"/>
<path d="M123.14 399.8H122.66C122.657 400.887 122.224 401.928 121.456 402.696C120.688 403.464 119.646 403.897 118.56 403.9H98.4099C97.3197 403.847 96.2917 403.377 95.5388 402.586C94.7859 401.796 94.366 400.746 94.366 399.655C94.366 398.563 94.7859 397.514 95.5388 396.724C96.2917 395.933 97.3197 395.463 98.4099 395.41H118.56C119.098 395.411 119.63 395.519 120.126 395.726C120.622 395.934 121.072 396.238 121.45 396.62C121.836 396.995 122.142 397.445 122.35 397.942C122.558 398.438 122.663 398.972 122.66 399.51H123.79C123.787 398.115 123.233 396.777 122.247 395.79C121.261 394.802 119.925 394.245 118.53 394.24H98.3799C97.6692 394.209 96.9596 394.322 96.2938 394.573C95.628 394.823 95.0199 395.206 94.506 395.698C93.9921 396.19 93.5832 396.781 93.3038 397.435C93.0244 398.09 92.8804 398.794 92.8804 399.505C92.8804 400.216 93.0244 400.92 93.3038 401.575C93.5832 402.229 93.9921 402.82 94.506 403.312C95.0199 403.804 95.628 404.186 96.2938 404.437C96.9596 404.688 97.6692 404.801 98.3799 404.77H118.53C119.924 404.767 121.26 404.212 122.246 403.226C123.232 402.241 123.787 400.904 123.79 399.51H123.14M42.9999 380.79H42.4099V444.55H174.33V380.2H42.4099V380.79H42.9999V381.37H173.16V443.37H43.5799V380.79H42.9999Z" fill="#708CD5"/>
<path d="M168.19 443.38H43.5801V381.54C76.5001 429.3 148.06 441 168.29 443.38" fill="#BDC9E7"/>
<path d="M173.74 444H43V380.85C43.2526 381.068 43.4511 381.342 43.58 381.65V443.38H168.37C171.83 443.9 173.79 444.04 173.79 444.04" fill="#607CC6"/>
<path d="M401.81 260C402.86 257.12 401.35 255.39 401.3 253.83C401.25 252.27 401.73 250.88 400.89 250.67C400.05 250.46 399.05 251.76 398.5 258.55L401.81 260Z" fill="#F9B384"/>
<path d="M402.73 262.58L401.64 267H394.75L390.54 257.59C389.94 256.46 388.29 251.9 388.44 250.94C388.72 249.15 390.9 253.59 391 253.66C390.61 252.32 389.29 248.08 389.91 247.12C390.64 245.98 392.85 250.93 393.42 252.42C393.14 251.04 391.54 245.82 392.32 245.06C393.26 244.16 395.43 249.92 395.77 251.73C395.68 250.37 395.03 245.73 395.94 245.86C397.19 246.01 399.37 254.12 399.37 254.12C400.953 256.73 402.088 259.586 402.73 262.57V262.58Z" fill="#F9B384"/>
<path d="M392 256.51C392.777 255.763 393.664 255.139 394.63 254.66C395.127 254.426 395.651 254.255 396.19 254.15C396.732 254.06 397.286 254.08 397.82 254.21V254.35C396.782 254.292 395.747 254.509 394.82 254.98C393.88 255.458 392.977 256.006 392.12 256.62L392.03 256.51H392Z" fill="#E28B6D"/>
<path d="M398.49 256C398.275 255.99 398.061 256.04 397.872 256.144C397.683 256.248 397.527 256.403 397.42 256.59C397.248 257 397.186 257.448 397.24 257.89C397.274 258.351 397.358 258.807 397.49 259.25C397.614 259.697 397.785 260.129 398 260.54L397.89 260.63C397.582 260.249 397.345 259.815 397.19 259.35C397.022 258.89 396.918 258.409 396.88 257.92C396.825 257.411 396.919 256.897 397.15 256.44C397.223 256.326 397.31 256.221 397.41 256.13C397.517 256.054 397.631 255.987 397.75 255.93C397.874 255.894 398.002 255.867 398.13 255.85H398.5V256H398.49Z" fill="#E28B6D"/>
<path d="M427.33 435.8L427.99 427.3H416.55L415 430.88C414.334 432.374 413.432 433.752 412.33 434.96C415.72 436.74 421 438.69 427.33 435.8Z" fill="#F9B384"/>
<path d="M412.29 435C410.689 436.774 408.691 438.144 406.46 439L401.35 441C401.055 441.19 400.829 441.47 400.706 441.799C400.583 442.128 400.57 442.487 400.668 442.824C400.765 443.161 400.969 443.458 401.249 443.669C401.528 443.881 401.869 443.997 402.22 444H422.93C423.954 443.998 424.94 443.612 425.692 442.917C426.444 442.222 426.907 441.27 426.99 440.25L427.33 435.88C420.96 438.78 415.68 436.83 412.33 435.04L412.29 435Z" fill="#102048"/>
<path d="M455.35 435.8L454.68 427.3H466.13L467.71 430.88C468.376 432.374 469.278 433.752 470.38 434.96C466.99 436.74 461.71 438.69 455.38 435.8H455.35Z" fill="#F9B384"/>
<path d="M470.38 435C471.985 436.769 473.982 438.139 476.21 439L481.32 441C481.615 441.19 481.841 441.47 481.964 441.799C482.087 442.128 482.1 442.487 482.003 442.824C481.905 443.161 481.701 443.458 481.421 443.669C481.142 443.881 480.801 443.997 480.45 444H459.74C458.717 443.998 457.733 443.611 456.982 442.916C456.232 442.222 455.771 441.27 455.69 440.25L455.35 435.88C461.71 438.78 466.99 436.83 470.35 435.04L470.38 435Z" fill="#102048"/>
<path d="M468.88 429.05H449.31L438.62 346.26L433.06 383.88L431.91 429.05H413.42C411.986 391.005 414.142 352.91 419.86 315.27L420.26 308.76L420.74 301.32L457.92 304L458.36 309.07L459.23 318.74L469 429.05" fill="#FF9933"/>
<path d="M444.08 322.52C435.72 322.52 425.9 320.86 419.72 317.41L419.86 315.3C423.54 315.97 432.42 316.36 440.98 316.36C448.38 316.36 455.54 316.07 458.93 315.44L459.23 318.78C457.59 321.25 451.4 322.52 444.08 322.52Z" fill="#FF9933"/>
<path d="M418.82 303.49C418.82 303.49 415.14 313.02 418.3 314.85C421.46 316.68 457.89 317.04 460.78 314.85C463.67 312.66 456.68 307.17 457.35 303.51C458.02 299.85 418.82 303.51 418.82 303.51" fill="#0099CC"/>
<path d="M415.71 264.33C414.43 267.17 409.71 275.76 409.71 275.76L402.77 262.69C401.21 263.95 399.38 265.12 393.94 265.2C393.94 265.2 401.76 294.13 408.8 297.11C420.34 301.99 423.06 280.11 423.06 280.11L415.75 264.29L415.71 264.33Z" fill="#0099CC"/>
<path d="M415.71 264.33L417.59 259.92C418.305 258.145 419.657 256.701 421.38 255.87L421.88 255.66C425.15 254.43 431.2 252.48 436.82 252.54C438.82 252.54 446.31 252.45 458.47 255.54L461.87 298.96L421.65 298.13L415.71 264.31" fill="#0099CC"/>
<path d="M453.31 302.08C452.63 302.02 451.88 301.98 451.07 301.95L441.73 299.32C442.564 299.217 443.375 298.978 444.13 298.61L459.21 298.92L453.31 302.08Z" fill="#BBC4DB"/>
<path d="M452.71 302.41L451.07 301.95C451.88 301.95 452.63 302.02 453.31 302.08L452.71 302.41Z" fill="#5874BE"/>
<path d="M461.76 297.56L459.62 270.26L459.83 270.41L464.49 296.1L461.76 297.56Z" fill="#BBC4DB"/>
<path d="M459.21 298.92L444.13 298.61C451.45 295 452.46 279.16 451.6 264.33L459.6 270.26L461.74 297.56L459.19 298.92" fill="#006699"/>
<path d="M453.38 254.38C455.81 254.91 459.86 255.47 461.87 256.84C463.88 258.21 469.55 287.55 471.01 294.32C472.47 301.09 472.84 308.02 442.85 309.12L439.93 300.9L457.48 294.13L450.75 264.33L453.38 254.38Z" fill="#0099CC"/>
<path d="M421.07 266.71C421.28 269.51 421.37 272.45 421.47 275.39L421.56 279.8C421.56 281.27 421.56 282.74 421.56 284.21H421.34C421.23 282.74 421.16 281.27 421.09 279.8L420.94 275.39C420.87 272.45 420.81 269.51 420.86 266.39L421.08 266.68L421.07 266.71Z" fill="#1F3C88"/>
<path d="M454.55 296.88V298.56L446.18 306.13L445.52 303.01L454.55 296.88Z" fill="#102048"/>
<path d="M444.92 305.03L454.51 296.88L436.46 294.62L444.92 305.03Z" fill="white"/>
<path d="M446.04 306.2H411.5L405.71 278.71H440.26L446.04 306.2Z" fill="#102048"/>
<path d="M427.77 294.21H423.97L423.25 290.41H427.06L427.77 294.21Z" fill="white"/>
<path d="M424.69 224.35C420.8 214.47 437.07 210.82 438.69 219.08C440.142 218.394 441.732 218.051 443.337 218.077C444.943 218.103 446.521 218.497 447.95 219.23C456.85 224.16 451.1 238.05 447.95 238.05L431.86 236L424.69 224.4V224.35Z" fill="#6F3428"/>
<path d="M445.19 243V253.12C445.19 255.9 442.5 258.12 439.19 258.12C435.88 258.12 433.19 255.87 433.19 253.12V243H445.19Z" fill="#F9B384"/>
<path d="M442.54 246.87C441.409 248.255 439.982 249.37 438.364 250.133C436.746 250.896 434.979 251.288 433.19 251.28V246L442.54 246.92V246.87Z" fill="#3C1C16"/>
<path d="M444.89 226.64V244C443.794 245.714 442.264 247.108 440.455 248.039C438.645 248.97 436.622 249.405 434.59 249.3C431.15 249.06 429.42 246.9 428.52 243.44C428.144 241.974 427.893 240.478 427.77 238.97C427.51 236.2 427.44 232.97 427.34 229.52V226.68H444.89" fill="#F9B384"/>
<path d="M427.54 222.84C425.4 220.66 421.05 222.08 419.77 224.71C419.395 225.498 419.191 226.356 419.172 227.228C419.153 228.1 419.319 228.966 419.659 229.769C419.999 230.573 420.506 231.295 421.145 231.888C421.785 232.481 422.543 232.931 423.37 233.21C427.79 234.7 429.59 230.05 429.59 230.05C430.147 230.701 430.869 231.191 431.68 231.469C432.49 231.746 433.36 231.802 434.2 231.63C434.892 231.503 435.54 231.2 436.081 230.75C436.623 230.3 437.039 229.718 437.29 229.06C437.29 229.06 438 234.81 445.55 234.67C447.17 234.12 447.92 227.84 447.92 227.84L442.92 222.55L427.52 222.84H427.54Z" fill="#6F3428"/>
<path d="M442.85 309.12C439.127 309.998 435.278 310.212 431.48 309.75C429.112 309.448 426.861 308.547 424.94 307.13C423.345 305.868 422.056 304.261 421.17 302.43C421.031 302.214 420.957 301.962 420.957 301.705C420.957 301.448 421.031 301.196 421.17 300.98C421.56 300.55 422.27 301.28 422.64 301.57C423.87 302.541 424.949 303.691 425.84 304.98C425.84 304.98 423 300.31 423.71 299.55C424.26 298.98 425.09 299.12 427.95 303.87C427.95 303.87 428.49 305.04 429.01 304.43C429.29 304.1 427.38 300.43 428.77 300.1C429.83 299.86 430.84 303.34 431.57 304.7C432.49 305.77 434.07 304.7 434.07 304.7L441.79 306.16L442.84 309.16L442.85 309.12Z" fill="#F9B384"/>
<path d="M433.88 304.92C433.755 304.132 433.544 303.361 433.25 302.62C433.174 302.454 433.117 302.279 433.08 302.1C433.05 301.982 433.053 301.859 433.091 301.743C433.128 301.628 433.197 301.525 433.29 301.448C433.384 301.37 433.497 301.321 433.617 301.305C433.738 301.29 433.86 301.309 433.97 301.36C434.935 301.909 435.701 302.749 436.16 303.76C436.655 304.605 436.866 305.586 436.76 306.56C436.76 306.85 434.22 306.86 434.06 306.5C434.028 306.407 434.011 306.309 434.01 306.21C433.991 305.778 433.948 305.347 433.88 304.92Z" fill="#F9B384"/>
<path d="M436.93 332.43C437.4 335.43 437.86 338.43 438.28 341.43L439.51 350.43L440.65 359.48L441.17 364.02L441.65 368.56H441.37L440.67 364.05L440.01 359.53L438.79 350.48L437.67 341.48C437.3 338.48 436.97 335.43 436.67 332.41H436.95L436.93 332.43Z" fill="#708CD5"/>
<path d="M432.21 260.48C433.158 261.354 434.27 262.031 435.483 262.47C436.695 262.91 437.982 263.103 439.27 263.04C440.55 262.968 441.8 262.627 442.94 262.04C444.089 261.442 445.141 260.673 446.06 259.76L446.22 259.9C445.365 260.936 444.328 261.807 443.16 262.47C441.973 263.127 440.654 263.513 439.3 263.6C437.934 263.669 436.569 263.44 435.3 262.93C434.053 262.424 432.936 261.645 432.03 260.65L432.18 260.5L432.21 260.48Z" fill="#1F3C88"/>
<path d="M444.31 235.54C445.09 233.54 446.62 233.04 448.1 233.73C450.45 234.83 449.67 240.92 444.31 241.05V235.54Z" fill="#F9B384"/>
<path d="M445.37 236.59C445.321 236.295 445.338 235.993 445.421 235.705C445.505 235.418 445.651 235.153 445.85 234.93C445.958 234.808 446.091 234.711 446.24 234.647C446.39 234.582 446.552 234.552 446.714 234.558C446.877 234.564 447.036 234.605 447.181 234.68C447.325 234.755 447.451 234.861 447.55 234.99L447.43 235.17C447.217 235.074 446.984 235.029 446.75 235.04C446.554 235.068 446.373 235.163 446.24 235.31C446.08 235.478 445.948 235.67 445.85 235.88C445.741 236.108 445.654 236.346 445.59 236.59H445.37Z" fill="#6F3428"/>
<path d="M432 243.87C432.432 244.005 432.878 244.085 433.33 244.11C433.775 244.16 434.225 244.16 434.67 244.11C435.112 244.07 435.546 243.969 435.96 243.81C436.378 243.647 436.777 243.439 437.15 243.19L437.3 243.34C436.982 243.718 436.591 244.028 436.15 244.25C435.704 244.466 435.223 244.602 434.73 244.65C434.243 244.698 433.752 244.682 433.27 244.6C432.783 244.525 432.317 244.351 431.9 244.09L432 243.9V243.87Z" fill="#3C1C16"/>
<path d="M440.39 243.16C439.939 243.16 439.498 243.026 439.123 242.776C438.748 242.525 438.456 242.169 438.284 241.753C438.111 241.336 438.066 240.878 438.154 240.435C438.242 239.993 438.459 239.587 438.778 239.268C439.097 238.949 439.503 238.732 439.945 238.644C440.388 238.556 440.846 238.601 441.263 238.774C441.679 238.946 442.035 239.238 442.286 239.613C442.536 239.988 442.67 240.429 442.67 240.88C442.67 241.485 442.43 242.065 442.002 242.492C441.575 242.92 440.995 243.16 440.39 243.16Z" fill="#F59872"/>
<path d="M428.58 243.49C428.21 242.023 427.959 240.528 427.83 239.02C428.016 238.968 428.207 238.941 428.4 238.94C428.984 238.948 429.542 239.179 429.96 239.587C430.378 239.994 430.624 240.546 430.647 241.13C430.67 241.713 430.469 242.283 430.084 242.722C429.7 243.161 429.161 243.436 428.58 243.49Z" fill="#F59872"/>
<path d="M513.77 231H484.54C482.79 231 481.057 230.655 479.44 229.985C477.824 229.315 476.355 228.333 475.118 227.095C473.881 225.857 472.9 224.388 472.231 222.77C471.562 221.153 471.219 219.42 471.22 217.67V213.32C471.22 209.787 472.623 206.399 475.121 203.901C477.619 201.403 481.007 200 484.54 200H513.76C515.51 200 517.243 200.345 518.86 201.015C520.476 201.685 521.945 202.667 523.182 203.905C524.419 205.143 525.4 206.612 526.069 208.23C526.738 209.847 527.081 211.58 527.08 213.33V217.62C527.088 221.159 525.69 224.556 523.195 227.065C520.699 229.574 517.309 230.989 513.77 231Z" fill="#C6EAE9"/>
<path d="M479.61 219.6L466.12 231.03H493.09L479.61 219.6Z" fill="#C6EAE9"/>
<path d="M491.88 215.63C491.88 216.2 491.711 216.756 491.395 217.23C491.078 217.704 490.629 218.073 490.102 218.291C489.576 218.509 488.997 218.566 488.438 218.455C487.88 218.344 487.366 218.069 486.964 217.666C486.561 217.264 486.287 216.751 486.175 216.192C486.064 215.633 486.121 215.054 486.339 214.528C486.557 214.002 486.926 213.552 487.4 213.235C487.874 212.919 488.431 212.75 489 212.75C489.764 212.75 490.496 213.053 491.037 213.594C491.577 214.134 491.88 214.866 491.88 215.63Z" fill="white"/>
<path d="M501.93 215.63C501.93 216.2 501.761 216.757 501.444 217.231C501.127 217.705 500.677 218.074 500.15 218.292C499.623 218.509 499.043 218.566 498.484 218.454C497.925 218.342 497.412 218.067 497.01 217.663C496.608 217.259 496.334 216.745 496.224 216.186C496.114 215.626 496.173 215.047 496.392 214.521C496.612 213.995 496.982 213.546 497.457 213.231C497.932 212.915 498.49 212.748 499.06 212.75C499.438 212.75 499.812 212.825 500.161 212.969C500.509 213.114 500.826 213.327 501.093 213.594C501.359 213.862 501.571 214.179 501.714 214.529C501.858 214.878 501.931 215.252 501.93 215.63Z" fill="white"/>
<path d="M512 215.63C512 216.2 511.831 216.756 511.515 217.23C511.198 217.704 510.748 218.073 510.222 218.291C509.696 218.509 509.117 218.566 508.558 218.455C507.999 218.344 507.486 218.069 507.084 217.666C506.681 217.264 506.406 216.751 506.295 216.192C506.184 215.633 506.241 215.054 506.459 214.528C506.677 214.002 507.046 213.552 507.52 213.235C507.994 212.919 508.55 212.75 509.12 212.75C509.884 212.75 510.616 213.053 511.156 213.594C511.697 214.134 512 214.866 512 215.63Z" fill="white"/>
<path d="M134.86 271.66C133.4 273.49 128.74 289.05 128.74 289.05C132.538 291.062 136.868 291.845 141.13 291.29C140.85 291.29 134.86 271.66 134.86 271.66Z" fill="#FF9933"/>
<path d="M149.73 437L150.3 429.67H140.42L139.05 432.76C138.479 434.05 137.703 435.239 136.75 436.28C139.67 437.82 144.23 439.5 149.75 437H149.73Z" fill="#996633"/>
<path d="M136.75 436.24C135.371 437.76 133.66 438.94 131.75 439.69L127.33 441.38C127.07 441.541 126.869 441.784 126.76 442.07C126.65 442.356 126.638 442.67 126.724 442.964C126.81 443.258 126.991 443.516 127.237 443.698C127.484 443.879 127.784 443.975 128.09 443.97H145.96C146.845 443.972 147.698 443.64 148.347 443.038C148.997 442.437 149.394 441.612 149.46 440.73L149.76 436.96C144.26 439.46 139.7 437.78 136.76 436.24H136.75Z" fill="#102048"/>
<path d="M179 437L178.43 429.67H188.31L189.68 432.76C190.251 434.05 191.027 435.239 191.98 436.28C189.06 437.82 184.5 439.5 178.98 437H179Z" fill="#996633"/>
<path d="M192 436.24C193.379 437.76 195.09 438.94 197 439.69L201.42 441.38C201.68 441.541 201.88 441.782 201.989 442.068C202.099 442.353 202.112 442.666 202.027 442.959C201.942 443.253 201.764 443.511 201.519 443.693C201.274 443.875 200.976 443.973 200.67 443.97H182.82C181.936 443.97 181.084 443.636 180.435 443.036C179.786 442.435 179.388 441.612 179.32 440.73L179 437C184.5 439.5 189.06 437.82 192 436.28V436.24Z" fill="#102048"/>
<path d="M192.47 432.56H172.53L158 345.18L153.45 432.56H135.15L136.24 342.85C134.37 334.51 134.98 328.07 137.58 321.3C138.27 319.511 139.051 317.759 139.92 316.05C140.53 314.85 141.19 313.61 141.92 312.34H173.92L174.49 316.05L174.81 318.05L192.56 432.53" fill="#0099CC"/>
<path d="M173.87 255.82L164.4 267.68L174.86 272.23L181.76 258.22L178.68 255.42L173.87 255.82Z" fill="#996633"/>
<path d="M158.88 269.64H147.92L148.66 254.72H159.62L158.88 269.64Z" fill="#996633"/>
<path d="M164.17 243.14C166.53 246.14 167.8 247.73 167.68 248.41C167.56 249.09 166.68 250.52 163.81 250.05C163.93 249.53 164.17 243.14 164.17 243.14Z" fill="#996633"/>
<path d="M164.79 251.82C164.38 254.37 163.27 256.21 160.79 256.46C156.542 256.744 152.285 256.061 148.34 254.46L147.17 240.51L152.81 236.51L164.2 238.21C164.32 240.73 164.77 243.84 164.95 246.78C165.086 248.48 165.042 250.189 164.82 251.88" fill="#996633"/>
<path d="M159.54 240C162.31 242.61 165.63 242.83 167.69 241.07C172.05 237.34 169.2 228.35 159.54 231.7C159.54 231.7 148.9 226.86 142.72 233.24C136.54 239.62 141.24 246.49 133.61 256.55C138.408 259.349 143.845 260.867 149.398 260.956C154.952 261.045 160.435 259.704 165.32 257.06C162.59 252.16 157.19 256.06 157.04 247.79C157.04 247.67 156.19 240.79 159.54 240Z" fill="#102048"/>
<path d="M153.21 324C147.908 324.034 142.641 323.151 137.64 321.39C138.02 320.39 138.44 319.39 138.91 318.39C143.07 320.44 148.64 321.13 154.15 321.13C161.027 321.11 167.874 320.223 174.53 318.49C171.08 321.32 162.77 324.03 153.21 324.03" fill="#006699"/>
<path d="M174.88 318.27C172.64 319.27 149.11 324.27 137.93 317.78C137.08 317.04 134.88 316.34 137.99 312.37C141.1 308.4 136.2 287.23 134.86 271.61C139.003 267.663 144.168 264.954 149.77 263.79C154.117 263.104 158.544 263.104 162.89 263.79C166.79 264.29 173.24 266.9 173.24 266.9L172.75 284.66C172.75 284.66 172.59 285.5 172.4 286.9C171.91 290.443 171.64 294.013 171.59 297.59C171.59 302.68 172.18 307.96 174.47 310.68C178.47 315.44 177.12 317.27 174.89 318.27" fill="#FF9933"/>
<path d="M185 278L182.3 293.16L178.82 291L178.72 290.94C178.671 290.898 178.617 290.861 178.56 290.83L165.45 282.56L159.92 263.56C165.32 264.36 171.23 264.76 174.92 268.11C177.58 270.53 181.92 274.98 184.92 278.05" fill="#FF9933"/>
<path d="M202.06 258.88C202.06 258.88 197.78 287.74 197.06 290.63C196.958 291.033 196.835 291.43 196.69 291.82C195.8 294.36 194 296.82 190.45 296.59C189.496 296.488 188.563 296.246 187.68 295.87C185.814 295.112 184.012 294.206 182.29 293.16L185 278C186.15 279.18 187.11 280.15 187.7 280.72L192.37 257.49L202.1 258.88" fill="#996633"/>
<path d="M221.42 231.24C212.99 231.24 206.15 236.6 206.15 243.24C206.175 244.628 206.476 245.997 207.035 247.268C207.595 248.539 208.402 249.685 209.41 250.64H172.57V214C170.665 215.926 168.079 217.029 165.37 217.07C158.75 217.07 153.37 210.23 153.37 201.8C153.37 193.37 158.73 186.53 165.37 186.53C168.079 186.571 170.665 187.674 172.57 189.6V152.93H209.78C208.665 153.894 207.765 155.083 207.14 156.418C206.514 157.754 206.177 159.206 206.15 160.68C206.15 167.3 212.99 172.68 221.42 172.68C229.85 172.68 236.69 167.31 236.69 160.68C236.661 159.206 236.322 157.755 235.697 156.42C235.072 155.085 234.173 153.896 233.06 152.93H270.27V190.42C271.243 189.231 272.462 188.265 273.843 187.591C275.223 186.916 276.734 186.547 278.27 186.51C284.89 186.51 290.27 193.35 290.27 201.78C290.27 210.21 284.9 217.05 278.27 217.05C276.733 217.013 275.222 216.643 273.841 215.967C272.46 215.29 271.241 214.322 270.27 213.13V250.63H233.42C234.431 249.677 235.241 248.531 235.803 247.26C236.364 245.989 236.666 244.619 236.69 243.23C236.69 236.6 229.85 231.23 221.42 231.23V231.24Z" fill="#FBC343"/>
<path d="M192.34 259.8C191.9 256.92 192.47 253.8 193.11 250.33L203.11 250.43C201.82 253.43 204.21 256.43 202.11 259L197.51 263.94L192.39 259.8H192.34Z" fill="#996633"/>
<path d="M181.76 258.22C184.22 256.56 186.96 250.36 186.96 250.36C185.05 250.26 178.14 250.1 175.46 250.36C175.46 250.36 175.46 254.08 173.87 255.82C172.87 256.82 181.76 258.22 181.76 258.22Z" fill="#996633"/>
<path d="M158.64 247.42C158.546 246.751 158.249 246.127 157.789 245.632C157.33 245.137 156.73 244.794 156.07 244.65C155.56 244.498 155.012 244.541 154.532 244.77C154.051 244.999 153.673 245.398 153.47 245.89C152.87 247.81 153.79 252.64 158.18 250.48C158.68 250.27 158.95 249.27 158.64 247.42Z" fill="#996633"/>
<path d="M138.17 297.87C137.86 296.08 137.57 294.28 137.31 292.49L136.53 287.1L135.83 281.71C135.61 279.9 135.41 278.1 135.23 276.29H135.44C135.75 278.09 136.03 279.88 136.3 281.67L137.07 287.06L137.77 292.46C137.99 294.26 138.193 296.063 138.38 297.87H138.17Z" fill="#6F3428"/>
<path d="M171.58 297.63C168.38 291.84 166.96 283.51 166.96 283.51L172.39 286.94C171.9 290.483 171.63 294.053 171.58 297.63Z" fill="#FF9933"/>
<path d="M173.24 267C172.622 267.034 172.012 267.159 171.43 267.37C170.861 267.601 170.328 267.914 169.85 268.3C169.369 268.694 168.93 269.136 168.54 269.62C168.13 270.1 167.759 270.611 167.43 271.15L167.23 271.06C167.457 270.442 167.77 269.86 168.16 269.33C168.543 268.788 168.997 268.301 169.51 267.88C170.036 267.464 170.632 267.146 171.27 266.94C171.917 266.738 172.601 266.687 173.27 266.79V267H173.24Z" fill="#6F3428"/>
<path d="M152.46 344.65C154.339 345.049 156.264 345.183 158.18 345.05C159.138 344.997 160.093 344.894 161.04 344.74C162.04 344.59 162.94 344.4 163.87 344.17L163.95 344.37C163.037 344.734 162.093 345.015 161.13 345.21C160.167 345.407 159.191 345.534 158.21 345.59C157.23 345.653 156.245 345.626 155.27 345.51C154.292 345.399 153.33 345.181 152.4 344.86L152.46 344.65Z" fill="#1F3C88"/>
<path d="M164.3 251.87C163.605 251.87 162.939 251.594 162.447 251.102C161.956 250.611 161.68 249.945 161.68 249.25C161.68 248.555 161.956 247.889 162.447 247.397C162.939 246.906 163.605 246.63 164.3 246.63C164.51 246.63 164.719 246.66 164.92 246.72C164.92 247.46 164.99 248.19 164.99 248.9C164.998 249.877 164.931 250.853 164.79 251.82C164.629 251.857 164.465 251.873 164.3 251.87Z" fill="#996633"/>
<path d="M156.28 247.07C156.04 246.69 155.76 246.3 155.46 246.22C155.38 246.202 155.297 246.201 155.216 246.216C155.135 246.232 155.058 246.264 154.99 246.31C154.804 246.422 154.626 246.549 154.46 246.69L154.29 246.58C154.386 246.336 154.541 246.12 154.74 245.95C154.858 245.851 154.996 245.781 155.146 245.745C155.295 245.708 155.45 245.707 155.6 245.74C155.872 245.841 156.1 246.036 156.24 246.29C156.37 246.51 156.449 246.756 156.47 247.01L156.28 247.07Z" fill="#6F3428"/>
<path d="M144.88 233.67C144.88 234.576 144.611 235.461 144.108 236.215C143.605 236.968 142.89 237.555 142.053 237.901C141.216 238.248 140.295 238.339 139.406 238.162C138.518 237.985 137.702 237.549 137.061 236.909C136.421 236.268 135.985 235.452 135.808 234.564C135.631 233.675 135.722 232.754 136.069 231.917C136.415 231.081 137.002 230.365 137.755 229.862C138.509 229.359 139.394 229.09 140.3 229.09C140.901 229.09 141.497 229.209 142.053 229.439C142.608 229.669 143.113 230.006 143.539 230.432C143.964 230.857 144.301 231.362 144.531 231.917C144.762 232.473 144.88 233.069 144.88 233.67Z" fill="#102048"/>
<path d="M190.9 296.61H190.42C189.466 296.508 188.533 296.266 187.65 295.89C188.028 294.566 188.846 293.41 189.97 292.613C191.093 291.817 192.455 291.428 193.83 291.51C194.782 291.52 195.731 291.63 196.66 291.84C195.81 294.26 194.13 296.63 190.9 296.63" fill="#996633"/>
<path d="M203.59 248.69C203.52 249.06 203.3 249.46 203.2 249.96C202.962 251.42 202.628 252.864 202.2 254.28L199.33 252.82C199.956 250.793 200.883 248.872 202.08 247.12C202.49 246.61 202.76 246.28 203.21 246.7C203.432 246.977 203.58 247.306 203.639 247.656C203.698 248.006 203.668 248.365 203.55 248.7L203.59 248.69Z" fill="#996633"/>
<path d="M203.59 248.69C202.4 248.36 203 247.8 203.25 246.69C203.472 246.967 203.619 247.296 203.679 247.646C203.738 247.996 203.708 248.355 203.59 248.69Z" fill="#FF9933"/>
<path d="M177.3 246.74C177.24 247.11 177.3 247.56 177.23 248.07C176.952 249.52 176.765 250.987 176.67 252.46L179.87 252.06C179.962 249.939 179.74 247.816 179.21 245.76C179 245.14 178.86 244.76 178.3 244.99C177.74 245.22 177.47 245.7 177.3 246.74Z" fill="#996633"/>
<path d="M177.3 246.74C178.53 246.83 178.15 246.11 178.3 244.99C177.87 245.16 177.47 245.7 177.3 246.74Z" fill="#FF9933"/>
<path d="M179.91 249.7C179.904 250.014 180.019 250.318 180.23 250.55C180.42 250.77 180.76 250.95 180.94 251.34C181.075 251.698 181.075 252.092 180.94 252.45C180.834 252.786 180.664 253.098 180.44 253.37L180.32 253.29C180.461 252.993 180.568 252.681 180.64 252.36C180.73 252.074 180.73 251.766 180.64 251.48C180.55 251.22 180.25 251.05 180.02 250.74C179.908 250.592 179.83 250.421 179.79 250.24C179.751 250.059 179.751 249.871 179.79 249.69L179.91 249.7Z" fill="#996633"/>
<path d="M200.49 250.14C200.412 250.623 200.159 251.061 199.78 251.37C199.4 251.71 198.92 251.8 198.71 252.13C198.47 252.478 198.338 252.888 198.33 253.31C198.295 253.752 198.346 254.197 198.48 254.62H198.34C198.12 254.197 198.007 253.727 198.01 253.25C197.997 252.755 198.14 252.269 198.42 251.86C198.76 251.42 199.28 251.33 199.59 251.08C199.934 250.827 200.198 250.48 200.35 250.08H200.49V250.14Z" fill="#996633"/>
<path d="M137.89 312.54V312.49L138.01 312.42L137.91 312.54" fill="#D4C2BE"/>
<path d="M147.83 316.28C147.33 316.28 146.83 316.28 146.33 316.21C145.282 316.087 144.246 315.883 143.23 315.6C142.211 315.315 141.223 314.929 140.28 314.45C139.317 314.011 138.491 313.32 137.89 312.45L137.99 312.33L138.11 312.25C138.784 312.989 139.619 313.564 140.55 313.93C141.484 314.335 142.446 314.669 143.43 314.93C144.415 315.214 145.417 315.438 146.43 315.6C147.42 315.778 148.424 315.871 149.43 315.88V316.17C148.882 316.267 148.326 316.314 147.77 316.31" fill="#C85D49"/>
<path d="M70.6501 256.48H99.8701C103.405 256.48 106.796 255.076 109.296 252.576C111.796 250.076 113.2 246.685 113.2 243.15V239.09C113.2 235.555 111.796 232.164 109.296 229.664C106.796 227.164 103.405 225.76 99.8701 225.76H70.6601C67.1247 225.76 63.7342 227.164 61.2343 229.664C58.7345 232.164 57.3301 235.555 57.3301 239.09V243.22C57.334 244.965 57.6817 246.693 58.3532 248.304C59.0247 249.915 60.007 251.377 61.2438 252.609C62.4807 253.84 63.948 254.816 65.5619 255.48C67.1759 256.144 68.9048 256.484 70.6501 256.48Z" fill="#D3DFFF"/>
<path d="M104.8 245.34L118.28 256.77H91.3101L104.8 245.34Z" fill="#D3DFFF"/>
<path d="M92.52 241.23C92.52 241.8 92.6889 242.357 93.0054 242.83C93.3219 243.304 93.7716 243.673 94.2979 243.891C94.8241 244.109 95.4032 244.166 95.9619 244.055C96.5205 243.944 97.0337 243.669 97.4365 243.267C97.8393 242.864 98.1136 242.351 98.2247 241.792C98.3358 241.233 98.2788 240.654 98.0608 240.128C97.8428 239.602 97.4737 239.152 97.0001 238.835C96.5265 238.519 95.9696 238.35 95.4 238.35C94.6362 238.35 93.9037 238.654 93.3636 239.194C92.8235 239.734 92.52 240.466 92.52 241.23Z" fill="white"/>
<path d="M82.47 241.23C82.47 241.8 82.6389 242.357 82.9553 242.83C83.2718 243.304 83.7216 243.673 84.2478 243.891C84.7741 244.109 85.3532 244.166 85.9118 244.055C86.4705 243.944 86.9837 243.669 87.3864 243.267C87.7892 242.864 88.0635 242.351 88.1746 241.792C88.2858 241.233 88.2287 240.654 88.0107 240.128C87.7928 239.602 87.4236 239.152 86.95 238.835C86.4764 238.519 85.9196 238.35 85.35 238.35C84.5861 238.35 83.8536 238.654 83.3135 239.194C82.7734 239.734 82.47 240.466 82.47 241.23Z" fill="white"/>
<path d="M72.4199 241.23C72.4199 241.8 72.5891 242.357 72.906 242.831C73.2229 243.305 73.6733 243.674 74.2001 243.892C74.727 244.11 75.3066 244.166 75.8655 244.054C76.4244 243.942 76.9376 243.667 77.3399 243.263C77.7423 242.859 78.0158 242.345 78.1258 241.786C78.2358 241.226 78.1773 240.647 77.9578 240.121C77.7383 239.595 77.3676 239.146 76.8927 238.831C76.4178 238.515 75.86 238.348 75.2899 238.35C74.9122 238.35 74.5382 238.425 74.1893 238.57C73.8405 238.714 73.5236 238.927 73.257 239.194C72.9904 239.462 72.7792 239.779 72.6355 240.129C72.4919 240.478 72.4186 240.852 72.4199 241.23Z" fill="white"/>
<path d="M0 444.55H585V443.38H0" fill="#102048"/>
</g>
<defs>
<clipPath id="clip0_129_3828">
<rect width="585" height="445.43" fill="white"/>
</clipPath>
</defs>
</svg>
